# xmcd
#
# Track frame offsets: 
#        150
#        13375
#        32975
#        49942
#        64952
#        81127
#        98392
#        120132
#        134097
#        154750
#        169405
#        185430
#        203615
#        218367
#        237160
#        253202
#
# Disc length: 3565 seconds
#
# Revision: 0
# Processed by: cddbd v1.5.2PL0 Copyright (c) Steve Scherf et al.
# Submitted via: ExactAudioCopy v0.95a2
#
DISCID=db0deb10
DTITLE=Various Artist - 环球SACD天碟系列-极品之选鉴听版2
DYEAR=1900
DGENRE=Pop
TTITLE0=忘记他 - 邓丽君
TTITLE1=玻璃窗的爱 - 陈慧娴
TTITLE2=难得有情人 - 关淑怡
TTITLE3=再坐一会 - 邝美云
TTITLE4=旧梦不须记 - 雷安娜
TTITLE5=一人有一个梦想 - 黎瑞恩
TTITLE6=婚纱背后 - 徐小凤
TTITLE7=罂粟花 - 陈秋霞
TTITLE8=感冒 - 汤宝如
TTITLE9=天荒爱未老 - 周慧敏
TTITLE10=过客 - 关菊英
TTITLE11=明日有会期 - 蒋丽萍
TTITLE12=问我 - 陈丽斯
TTITLE13=留住这一刻 - 刘小慧
TTITLE14=是否 (国) - 苏芮
TTITLE15=东山飘雨西山晴 - 邓丽君
EXTD=
EXTT0=
EXTT1=
EXTT2=
EXTT3=
EXTT4=
EXTT5=
EXTT6=
EXTT7=
EXTT8=
EXTT9=
EXTT10=
EXTT11=
EXTT12=
EXTT13=
EXTT14=
EXTT15=
PLAYORDER=
